PathFileType	4	(X/Y/Z)	/Users/itak/Documents/Research/Walk-IL/dataset/trc/00401_00012.trc
DataRate	CameraRate	NumFrames	NumMarkers	Units	OrigDataRate	OrigDataStartFrame	OrigNumFrames
100.000000	100.000000	4	53	mm	100.000000	544	726
Frame#	Time	RPSI			LPSI			L3			STRN			T10			C7			CLAV			RBAK			LBAK			LSHO			LUPA			LAEL			LAOL			LWTS			LWPS			LFRA			LIFD			LHPS			LHTS			RSHO			RUPA			RAEL			RAOL			RWTS			RWPS			RFRA			RIFD			RHTS			RHPS			RBHD			LFHD			RFHD			LBHD			LHIP			RHIP			RASI			LASI			LKNE			LTHI			LANK			LTIP			LTOE			LMT1			LMT5			LHEE			RKNE			RTHI			RANK			RTIP			RTOE			RMT1			RMT5			RHEE			
		X1	Y1	Z1	X2	Y2	Z2	X3	Y3	Z3	X4	Y4	Z4	X5	Y5	Z5	X6	Y6	Z6	X7	Y7	Z7	X8	Y8	Z8	X9	Y9	Z9	X10	Y10	Z10	X11	Y11	Z11	X12	Y12	Z12	X13	Y13	Z13	X14	Y14	Z14	X15	Y15	Z15	X16	Y16	Z16	X17	Y17	Z17	X18	Y18	Z18	X19	Y19	Z19	X20	Y20	Z20	X21	Y21	Z21	X22	Y22	Z22	X23	Y23	Z23	X24	Y24	Z24	X25	Y25	Z25	X26	Y26	Z26	X27	Y27	Z27	X28	Y28	Z28	X29	Y29	Z29	X30	Y30	Z30	X31	Y31	Z31	X32	Y32	Z32	X33	Y33	Z33	X34	Y34	Z34	X35	Y35	Z35	X36	Y36	Z36	X37	Y37	Z37	X38	Y38	Z38	X39	Y39	Z39	X40	Y40	Z40	X41	Y41	Z41	X42	Y42	Z42	X43	Y43	Z43	X44	Y44	Z44	X45	Y45	Z45	X46	Y46	Z46	X47	Y47	Z47	X48	Y48	Z48	X49	Y49	Z49	X50	Y50	Z50	X51	Y51	Z51	X52	Y52	Z52	X53	Y53	Z53	

545	5.44	-937.5967407226562	981.0662231445312	-16.86195373535156	-806.1029052734375	964.491943359375	-22.17163848876953	-868.2634887695312	1047.408203125	-17.15928840637207	-869.1255493164062	1210.947509765625	210.4054107666016	-855.4972534179688	1149.416015625	-34.51870346069336	-835.5803833007812	1398.488159179688	-6.162341594696045	-861.7620239257812	1328.517578125	153.2875518798828	-900.3091430664062	1251.849365234375	-49.48114395141602	-733.1973266601562	1359.879150390625	-8.580012321472168	-693.6212158203125	1380.721435546875	82.36408996582031	-625.4080200195312	1260.708374023438	74.55513000488281	-609.2525024414062	1066.711791992188	119.2974319458008	-660.2196655273438	1039.17236328125	55.87361145019531	-672.9808959960938	861.5403442382812	220.8662719726562	-599.9534912109375	847.5657958984375	186.2619323730469	-603.1972045898438	965.6150512695312	147.348876953125	-661.9835815429688	679.3375854492188	223.7778625488281	-609.6688842773438	762.0177001953125	200.3355560302734	-655.031005859375	763.2341918945312	243.5876922607422	-997.7249145507812	1385.398803710938	31.92160797119141	-1054.8291015625	1324.224609375	9.800885200500488	-1104.741455078125	1065.554321289062	-4.707550048828125	-1010.519165039062	1052.120483398438	-2.630133628845215	-1116.188598632812	857.1921997070312	136.5523681640625	-1163.822021484375	844.4563598632812	80.65491485595703	-1129.6337890625	1001.346923828125	17.14815902709961	-1132.20458984375	683.588134765625	146.0829620361328	-1145.660400390625	755.0070190429688	155.8564910888672	-1170.482055664062	757.5264282226562	91.15635681152344	-922.4896240234375	1574.41162109375	-11.82702732086182	-790.82666015625	1613.5400390625	130.6906585693359	-910.1748657226562	1619.189819335938	114.1690444946289	-765.0607299804688	1560.342529296875	-6.226155281066895	-692.5244750976562	949.2430419921875	62.46481323242188	-1054.416625976562	972.318603515625	81.06877899169922	-987.1242065429688	973.4896850585938	201.0227966308594	-725.0227661132812	951.1058349609375	180.8891296386719	-718.3015747070312	461.2833251953125	136.9359436035156	-709.4535522460938	597.477294921875	125.7152633666992	-704.2272338867188	167.7861633300781	-212.5331268310547	-699.2280883789062	304.2319641113281	-40.1630744934082	-828.6669311523438	36.95148086547852	-105.6027755737305	-828.5439453125	95.99720001220703	-154.0595855712891	-732.3086547851562	61.03500366210938	-146.9966278076172	-746.1050415039062	210.9490203857422	-241.8269195556641	-1035.728759765625	484.4264221191406	205.1250610351562	-1055.229125976562	749.5057983398438	181.592529296875	-1021.425720214844	54.85914993286133	183.1812133789062	-1025.297607421875	357.5560913085938	228.3976287841797	-953.7337646484375	38.32091903686523	364.0374450683594	-926.3810424804688	47.75200653076172	288.0635681152344	-1028.19775390625	45.04106521606445	266.6458740234375	-968.85888671875	43.37910461425781	110.7406921386719	
546	5.45	-940.4903564453125	981.3974609375	-11.29197883605957	-808.9985961914062	964.1682739257812	-17.23345947265625	-871.3436279296875	1047.91796875	-11.74173355102539	-870.574951171875	1210.950073242188	216.5015258789062	-858.7341918945312	1149.960693359375	-28.65124320983887	-838.8959350585938	1399.0771484375	0.1187691614031792	-863.444091796875	1328.5712890625	159.6051483154297	-904.3328247070312	1252.6015625	-42.87379455566406	-736.5933227539062	1360.283203125	-3.351540327072144	-695.9393920898438	1380.682495117188	87.26258087158203	-628.0584716796875	1260.536010742188	77.47061920166016	-610.8488159179688	1066.10986328125	119.2606811523438	-663.0833129882812	1039.3701171875	56.71859741210938	-672.485595703125	858.9161376953125	218.5501403808594	-599.9478759765625	846.0140991210938	182.59765625	-604.0699462890625	964.5457763671875	145.7370452880859	-660.5943603515625	676.7525024414062	217.4329833984375	-608.879150390625	760.2265014648438	195.1222381591797	-653.8603515625	760.2660522460938	239.0104064941406	-1000.701416015625	1386.071044921875	39.84074783325195	-1058.373168945312	1324.8671875	18.50683403015137	-1110.626342773438	1066.4384765625	6.624849319458008	-1016.598327636719	1052.0771484375	7.523291110992432	-1122.426147460938	860.4837646484375	150.9991760253906	-1170.645874023438	847.3178100585938	95.80432891845703	-1135.774536132812	1002.71728515625	29.61202239990234	-1140.419189453125	687.3568115234375	163.8945465087891	-1152.815673828125	759.0205078125	172.47998046875	-1178.169555664062	760.67333984375	108.0378265380859	-925.84228515625	1574.630981445312	-5.003872394561768	-792.6797485351562	1614.002563476562	136.1559143066406	-912.21923828125	1619.766723632812	120.7801742553711	-768.3224487304688	1560.400756835938	-0.8739631772041321	-695.180908203125	948.8167724609375	67.13965606689453	-1056.664428710938	972.5904541015625	86.76679992675781	-989.4800415039062	973.8571166992188	207.1357269287109	-727.4946899414062	951.0018920898438	185.5114440917969	-720.0294189453125	461.855224609375	149.8968353271484	-711.6258544921875	597.5343017578125	136.2404937744141	-708.3937377929688	173.1455230712891	-203.4861907958984	-701.8999633789062	306.8336486816406	-28.64341926574707	-826.5038452148438	37.91150283813477	-93.56198120117188	-829.8307495117188	98.62985229492188	-142.0013885498047	-732.296142578125	65.54785919189453	-138.1138305664062	-751.44775390625	215.5819702148438	-231.636474609375	-1036.907836914062	484.014892578125	208.8067932128906	-1056.95654296875	749.9288940429688	187.7997283935547	-1021.360656738281	54.96833801269531	183.2341461181641	-1025.904296875	356.9224853515625	231.0085296630859	-953.7945556640625	38.25786590576172	364.2056884765625	-926.2642211914062	47.62128448486328	288.1217956542969	-1028.012451171875	45.07623672485352	266.7494812011719	-968.6863403320312	43.49444961547852	110.8064804077148	
547	5.46	-943.09423828125	981.5380859375	-5.957433223724365	-811.5700073242188	963.82861328125	-12.38816452026367	-874.0988159179688	1048.493408203125	-6.678845882415771	-872.029541015625	1210.971069335938	222.3802947998047	-861.6013793945312	1150.569458007812	-22.89981460571289	-842.0458984375	1399.702026367188	6.300672054290771	-865.0878295898438	1328.671142578125	165.7406463623047	-908.0728759765625	1253.392456054688	-36.4776611328125	-739.8258666992188	1360.788208007812	1.815551280975342	-698.1744995117188	1380.722412109375	92.13172912597656	-630.5928344726562	1260.519287109375	80.30727386474609	-612.4326782226562	1065.627197265625	118.8264389038086	-665.9912719726562	1039.759033203125	57.18460083007812	-672.0349731445312	856.7312622070312	216.1381225585938	-600.1105346679688	844.7223510742188	178.7734222412109	-605.0352172851562	963.6491088867188	143.7440795898438	-659.4223022460938	674.7191162109375	211.8843841552734	-608.3554077148438	758.7947387695312	190.1194610595703	-652.7770385742188	757.9306640625	234.7312774658203	-1003.514770507812	1386.728515625	47.50374603271484	-1061.680297851562	1325.481323242188	26.9406566619873	-1116.197998046875	1067.317138671875	17.85669136047363	-1022.34619140625	1052.06005859375	17.6722354888916	-1128.491577148438	863.8395385742188	165.3277740478516	-1177.233764648438	850.3333129882812	110.8033981323242	-1141.619140625	1004.144409179688	41.96276092529297	-1148.549560546875	691.2938842773438	181.4416809082031	-1159.862548828125	763.1512451171875	188.8809509277344	-1185.702270507812	764.0371704101562	124.6874923706055	-929.0824584960938	1574.81640625	1.755867838859558	-794.44580078125	1614.485473632812	141.5407409667969	-914.1770629882812	1620.348510742188	127.3029861450195	-771.4920043945312	1560.445922851562	4.428772449493408	-697.5735473632812	948.5692138671875	71.84787750244141	-1058.42822265625	972.3197021484375	91.55887603759766	-991.92138671875	974.2352294921875	212.9453277587891	-730.0704956054688	951.0576782226562	190.1130676269531	-721.8450927734375	462.6817321777344	162.6641082763672	-713.8247680664062	597.7798461914062	146.6884460449219	-712.8094482421875	177.8049621582031	-194.0030822753906	-704.6923828125	309.3655395507812	-17.04042625427246	-824.0764770507812	39.23312759399414	-80.06911468505859	-830.9732055664062	100.7710571289062	-128.8605804443359	-732.2505493164062	70.14320373535156	-127.8455581665039	-757.137939453125	219.2276153564453	-221.2394104003906	-1037.797241210938	483.593505859375	212.55126953125	-1058.391235351562	750.0554809570312	193.7706756591797	-1021.237976074219	55.11557388305664	183.2999114990234	-1026.26904296875	356.294921875	233.6626129150391	-953.8617553710938	38.19412231445312	364.3845825195312	-926.1189575195312	47.45386505126953	288.1792907714844	-1027.775146484375	45.13658142089844	266.8620910644531	-968.4688720703125	43.61751174926758	110.8826217651367	
548	5.47	-945.4793701171875	981.506103515625	-0.8298815488815308	-813.900634765625	963.4769287109375	-7.633287906646729	-876.6181640625	1049.146606445312	-1.941075563430786	-873.4683837890625	1211.031860351562	228.0566101074219	-864.1848754882812	1151.236083984375	-17.25776481628418	-845.0347900390625	1400.359252929688	12.36581420898438	-866.6904296875	1328.834716796875	171.6910858154297	-911.5516967773438	1254.213989257812	-30.28501319885254	-742.9021606445312	1361.385009765625	6.899029731750488	-700.319580078125	1380.852905273438	96.94192504882812	-633.0072021484375	1260.668823242188	83.05263519287109	-614.033203125	1065.29638671875	118.0668640136719	-668.9393310546875	1040.3359375	57.35933303833008	-671.6029663085938	854.9741821289062	213.6624908447266	-600.443359375	843.6737670898438	174.7983093261719	-606.1085205078125	962.9513549804688	141.4341583251953	-658.4821166992188	673.1735229492188	207.1138305664062	-608.127685546875	757.6653442382812	185.3077545166016	-651.7493286132812	756.1758422851562	230.7590942382812	-1006.165954589844	1387.38134765625	54.91079330444336	-1064.755615234375	1326.0830078125	35.09842300415039	-1121.440795898438	1068.2080078125	28.94369125366211	-1027.741577148438	1052.088134765625	27.77917861938477	-1134.366455078125	867.2828979492188	179.5008544921875	-1183.570922851562	853.5101928710938	125.6127624511719	-1147.145385742188	1005.639831542969	54.14980316162109	-1156.55615234375	695.4281005859375	198.7271881103516	-1166.77294921875	767.4255981445312	205.0489349365234	-1193.083374023438	767.6358642578125	141.0569000244141	-932.1947631835938	1574.986450195312	8.444923400878906	-796.135009765625	1614.999389648438	146.8421783447266	-916.0499267578125	1620.937133789062	133.7338409423828	-774.5660400390625	1560.508056640625	9.673966407775879	-699.7304077148438	948.5527954101562	76.52891540527344	-1059.822509765625	971.593994140625	95.60190582275391	-994.4102783203125	974.6259155273438	218.4913330078125	-732.7205810546875	951.3184814453125	194.6956176757812	-723.7362060546875	463.792236328125	175.1358642578125	-716.0438232421875	598.2498168945312	156.9563903808594	-717.3836669921875	181.6605224609375	-184.0605621337891	-707.6027221679688	311.7703247070312	-5.420375347137451	-821.4381103515625	40.82196426391602	-65.235107421875	-831.9771118164062	102.3873519897461	-114.7223663330078	-732.191162109375	74.62184143066406	-116.2976913452148	-763.095703125	221.8041229248047	-210.6067047119141	-1038.418090820312	483.1545715332031	216.3282165527344	-1059.57763671875	749.8327026367188	199.4017028808594	-1021.053771972656	55.29541015625	183.3795471191406	-1026.42138671875	355.6782836914062	236.3292083740234	-953.9313354492188	38.12911605834961	364.5726013183594	-925.9443359375	47.2454719543457	288.2362976074219	-1027.500122070312	45.22566604614258	266.9736328125	-968.2117309570312	43.74676513671875	110.965950012207	
